<svg version="1" xmlns="http://www.w3.org/2000/svg" width="1365.333" height="1365.333" viewBox="0 0 1024.000000 1024.000000"><path d="M489.7 119.7c-.3.2-3.6.6-7.3.8-3.8.3-8.7.7-10.9.9-11.1 1.4-15.5 2.1-28.9 4.2-14.7 2.3-46.7 11.7-64.2 19-43 17.7-78.6 46.2-100.7 80.5-10.6 16.6-21.5 42.1-24.2 56.9-.3 1.4-.7 3.5-1 4.7-.3 1.3-.7 3.1-.9 4.1-.4 1.9-.9 5.3-2.5 18.7-.9 7.7-.7 40.6.3 47 2.8 17.4 4 23.2 6.2 31.3 13.4 49.6 45.2 90.5 97.9 126.2 19.7 13.3 52 30.5 80 42.4 8.8 3.8 17.9 7.7 20.2 8.7 2.4 1.1 4.9 1.9 5.6 1.9.7 0 1.7.4 2.3.8 1.1 1 9.1 4 29.4 11.2 40.7 14.3 49.8 17.9 63.1 24.7 30.2 15.3 47.1 31.9 49.7 48.8 1.9 12-1.8 32.4-7.8 42.5-8.9 15.2-24.6 25.9-45 30.9-12.8 3.1-18.8 3.6-38.5 3.5-14.3-.1-20.1-.6-28.1-2.3-27.3-5.7-56.8-19.9-86.4-41.5-8.7-6.3-26.4-20.8-30-24.6-4.1-4.2-19.4-16.4-24.5-19.5-10.5-6.3-19.7-3.9-32.5 8.5-8.4 8-40.2 38.4-43.9 41.9-10.1 9.5-39 37.2-42.9 41.1-8.3 8.4-10.5 16.5-6.6 24.3 2.9 5.8 15.5 19.7 38.9 43 23.6 23.5 59.9 48.3 97.2 66.4 35.4 17.2 63.7 27 97.3 33.7 6.6 1.3 9.6 1.8 20 3.2 15.4 2 54.1 2.6 73 1.2 52-4.1 106.6-20.3 143.5-42.8 3.7-2.2 6.9-4 7.1-4 .3 0 4.4-2.6 9.2-5.9C764 811.6 801.1 751.2 807.7 683c.9-9.9 1-40.7 0-49.5-1.4-13.3-1.8-16-3.3-23.5-5.2-25.7-14.3-46.5-30.1-68.7-14.1-19.7-31.4-36.2-55.6-52.6-5.4-3.7-10-6.7-10.4-6.7-.4 0-1.4-.6-2.2-1.4-3.2-2.9-28-15.9-41.1-21.6-4.1-1.8-9.3-4.1-11.6-5.1-2.2-1-6.5-2.8-9.5-3.9-3-1.2-6.7-2.8-8.4-3.5-1.6-.7-9.7-3.9-18-7-8.2-3.1-16.6-6.2-18.5-7-3.5-1.4-18.8-6.7-56.5-19.5-50.5-17.1-68.9-26-83.6-40.5-20.2-20-17.4-53.6 5.9-69.3 9-6.2 21.7-10.9 33.7-12.7 2.2-.4 4.9-.9 6-1.2 4.2-1.3 34.5-1.1 40.8.3 3.5.7 7.5 1.5 8.9 1.8 12 2.1 37.5 13.7 53.8 24.4 9.2 6 31.8 23.4 37.5 28.9 1.1 1 4.5 3.8 7.5 6.1 14.8 11.1 24.8 9.7 38.9-5.4 6.6-7.1 27.9-29.8 38.7-41.4 3.4-3.6 8.1-8.5 10.4-11 2.3-2.5 9.2-9.9 15.4-16.4 6.1-6.6 11.8-12.7 12.6-13.6 13.8-14.7 13.9-26.1.5-41.9-20.9-24.7-71.5-58.8-112-75.6-15.6-6.5-36.5-13.5-47.5-16-5.1-1.1-22-4.6-24.5-5-8.4-1.4-15.6-2.5-21.5-3.1-3.6-.3-7.8-.8-9.5-1.1-4-.6-64.3-1.2-64.8-.6z"/></svg>